<svg width="77" height="18" viewBox="0 0 77 18" fill="none" xmlns="http://www.w3.org/2000/svg">
<path d="M3.256 5.524H3.208L3.376 9.892V17.5H0.304L0.28 0.699999H3.736L10.144 12.772L16.528 0.699999H19.984L19.96 17.5H16.888V9.892L17.056 5.524H17.008L10.192 17.836H10.072L3.256 5.524ZM32.1458 17.836C30.5458 17.836 29.1618 17.54 27.9938 16.948C26.8258 16.34 25.9298 15.468 25.3058 14.332C24.6818 13.196 24.3698 11.852 24.3698 10.3V0.699999H27.4418V10.3C27.4418 11.82 27.8498 12.996 28.6658 13.828C29.4818 14.66 30.6418 15.076 32.1458 15.076C33.6498 15.076 34.8098 14.66 35.6258 13.828C36.4578 12.996 36.8738 11.82 36.8738 10.3V0.699999H39.9458V10.3C39.9458 11.852 39.6338 13.196 39.0098 14.332C38.3858 15.468 37.4898 16.34 36.3218 16.948C35.1538 17.54 33.7618 17.836 32.1458 17.836ZM52.4785 17.836C50.7665 17.836 49.2225 17.476 47.8465 16.756C46.4865 16.02 45.4145 14.996 44.6305 13.684C43.8465 12.356 43.4545 10.828 43.4545 9.1C43.4545 7.372 43.8385 5.852 44.6065 4.54C45.3905 3.212 46.4705 2.188 47.8465 1.468C49.2225 0.731999 50.7665 0.363999 52.4785 0.363999C54.1585 0.363999 55.8545 0.603999 57.5665 1.084V3.988C56.7345 3.716 55.8705 3.508 54.9745 3.364C54.0785 3.204 53.2625 3.124 52.5265 3.124C50.7345 3.124 49.3025 3.644 48.2305 4.684C47.1745 5.724 46.6465 7.196 46.6465 9.1C46.6465 10.988 47.1745 12.46 48.2305 13.516C49.3025 14.556 50.7345 15.076 52.5265 15.076C53.2945 15.076 54.1345 15.004 55.0465 14.86C55.9585 14.716 56.8625 14.508 57.7585 14.236V17.14C56.9745 17.364 56.0945 17.532 55.1185 17.644C54.1585 17.772 53.2785 17.836 52.4785 17.836ZM72.4255 17.5C71.8655 16.06 71.0255 14.732 69.9055 13.516C68.8015 12.284 67.6095 11.34 66.3295 10.684C66.0735 12.94 65.4335 15.212 64.4095 17.5H61.1935C61.6095 16.684 62.0095 15.74 62.3935 14.668C62.7775 13.596 63.0815 12.548 63.3055 11.524C63.0815 11.556 62.9215 11.572 62.8255 11.572C61.3535 11.572 60.6175 10.98 60.6175 9.796C60.6175 9.188 60.8735 8.7 61.3855 8.332C61.9135 7.964 62.6655 7.772 63.6415 7.756C63.4815 5.356 62.7695 3.004 61.5055 0.699999H64.6975C65.4655 2.38 65.9695 4.1 66.2095 5.86C67.3295 4.196 68.4495 2.868 69.5695 1.876C70.6895 0.867999 71.9055 0.363999 73.2175 0.363999C74.4335 0.363999 75.3215 0.691999 75.8815 1.348C76.4415 2.004 76.7215 2.796 76.7215 3.724C76.7215 6.092 75.2895 8.02 72.4255 9.508L70.9375 7.372C71.8655 6.908 72.5615 6.372 73.0255 5.764C73.5055 5.156 73.7455 4.54 73.7455 3.916C73.7455 3.66 73.6655 3.468 73.5055 3.34C73.3615 3.196 73.1535 3.124 72.8815 3.124C72.3855 3.124 71.8975 3.3 71.4175 3.652C70.9375 3.988 70.4815 4.412 70.0495 4.924C69.6175 5.42 69.0735 6.108 68.4175 6.988L67.2895 8.452C69.1135 9.156 70.7855 10.316 72.3055 11.932C73.8255 13.532 74.9855 15.388 75.7855 17.5H72.4255Z" fill="white"/>
</svg>
